<svg xmlns="http://www.w3.org/2000/svg" version="1.1" viewBox="0 0 120.9 40.9" xml:space="preserve"><style>.st0{stroke:#a5a5a4;stroke-width:.9;stroke-miterlimit:10}.st1{fill:#fff}.st2{font-family:&apos;OpenSans-Semibold&apos;}.st3{font-size:10px}.st4{font-family:&apos;OpenSans-Bold&apos;}</style><path d="M7.3.4h106.3c3.8 0 6.9 3.1 6.9 6.9v26.3c0 3.8-3.1 6.9-6.9 6.9H7.3c-3.8 0-6.9-3.1-6.9-6.9V7.3C.4 3.5 3.5.4 7.3.4z" class="st0"/><path d="M19.5 14.7h-5.2v-2h5.2v-1h3.2V9.6h-9.9v21.8h9.9v-4.9h-3.2V14.7zm-2.2 15.4h-2v-.7h2v.7zm-.7-5c0-.6.5-1.1 1.1-1.1s1.1.5 1.1 1.1-.5 1.1-1.1 1.1-1.1-.5-1.1-1.1zm3.6 4.2v.7h-2v-.7h2z" class="st1"/><path d="M21.1 13.2h17.2V25H21.1V13.2zm11 16.2l-.6-2.8h-3.3v.3l-.6 2.5h-2.4v1.8h9.4v-1.8h-2.5z" class="st1"/><text class="st1 st2 st3" transform="translate(59.99 18.24)">Có trên</text><text class="st1 st4 st3" transform="translate(70.99 30.11)">PC</text></svg>
